<svg width="28" height="28" viewBox="0 0 28 28" fill="none" xmlns="http://www.w3.org/2000/svg">
<path fill-rule="evenodd" clip-rule="evenodd" d="M15.3125 4.8125C15.3125 4.4644 15.1742 4.13056 14.9281 3.88442C14.6819 3.63828 14.3481 3.5 14 3.5C13.6519 3.5 13.3181 3.63828 13.0719 3.88442C12.8258 4.13056 12.6875 4.4644 12.6875 4.8125V12.6875H4.8125C4.4644 12.6875 4.13056 12.8258 3.88442 13.0719C3.63828 13.3181 3.5 13.6519 3.5 14C3.5 14.3481 3.63828 14.6819 3.88442 14.9281C4.13056 15.1742 4.4644 15.3125 4.8125 15.3125H12.6875V23.1875C12.6875 23.5356 12.8258 23.8694 13.0719 24.1156C13.3181 24.3617 13.6519 24.5 14 24.5C14.3481 24.5 14.6819 24.3617 14.9281 24.1156C15.1742 23.8694 15.3125 23.5356 15.3125 23.1875V15.3125H23.1875C23.5356 15.3125 23.8694 15.1742 24.1156 14.9281C24.3617 14.6819 24.5 14.3481 24.5 14C24.5 13.6519 24.3617 13.3181 24.1156 13.0719C23.8694 12.8258 23.5356 12.6875 23.1875 12.6875H15.3125V4.8125Z" fill="black"/>
</svg>
